<svg width="36" height="37" viewBox="0 0 36 37" fill="none" xmlns="http://www.w3.org/2000/svg">
<rect x="0.5" y="1" width="35" height="35" rx="17.5" stroke="white"/>
<path d="M18 21C17.9015 21.0005 17.8038 20.9813 17.7128 20.9435C17.6218 20.9057 17.5392 20.8501 17.47 20.78L14 17.28C13.9086 17.1391 13.8672 16.9715 13.8824 16.8042C13.8976 16.6369 13.9685 16.4795 14.0838 16.3574C14.1991 16.2352 14.352 16.1552 14.5182 16.1303C14.6843 16.1054 14.854 16.137 15 16.22L18 19.22L21 16.22C21.146 16.137 21.3157 16.1054 21.4819 16.1303C21.648 16.1552 21.801 16.2352 21.9162 16.3574C22.0315 16.4795 22.1024 16.6369 22.1176 16.8042C22.1328 16.9715 22.0914 17.1391 22 17.28L18.5 20.78C18.3675 20.9144 18.1886 20.9931 18 21Z" fill="white"/>
</svg>
