<svg width="48" height="48" viewBox="0 0 48 48" fill="none" xmlns="http://www.w3.org/2000/svg">
<path d="M24 40.5C24 40.5 28.5 39 33 39C37.5 39 43.5 40.5 43.5 40.5V12C43.5 12 43.5 10.5 42.0255 10.164C39.9705 9.6945 36.1215 9 33 9C28.5 9 24 10.5 24 10.5C24 10.5 19.5 9 15 9C11.8785 9 8.0295 9.6945 5.9745 10.164C4.5 10.5 4.5 12 4.5 12V40.5C4.5 40.5 10.5 39 15 39C19.5 39 24 40.5 24 40.5ZM30 19.5H37.5C38.328 19.5 39 20.1705 39 21C39 21.8295 38.328 22.5 37.5 22.5H30C29.172 22.5 28.5 21.8295 28.5 21C28.5 20.1705 29.172 19.5 30 19.5ZM30 25.5H37.5C38.328 25.5 39 26.1705 39 27C39 27.8295 38.328 28.5 37.5 28.5H30C29.172 28.5 28.5 27.8295 28.5 27C28.5 26.1705 29.172 25.5 30 25.5ZM10.5 19.5H18C18.828 19.5 19.5 20.1705 19.5 21C19.5 21.8295 18.828 22.5 18 22.5H10.5C9.672 22.5 9 21.8295 9 21C9 20.1705 9.672 19.5 10.5 19.5ZM9 27C9 26.1705 9.672 25.5 10.5 25.5H18C18.828 25.5 19.5 26.1705 19.5 27C19.5 27.8295 18.828 28.5 18 28.5H10.5C9.672 28.5 9 27.8295 9 27ZM46.5 13.4985V43.4985C46.5 43.917 46.3245 44.319 46.0155 44.6025C45.7365 44.8575 45.375 44.9985 45 44.9985C44.958 44.9985 28.494 43.629 28.494 43.629C28.4295 44.397 27.7845 44.9985 27 44.9985H21C20.2155 44.9985 19.5705 44.397 19.506 43.629L3.1245 44.994C2.703 45.0375 2.2935 44.8875 1.9845 44.604C1.6755 44.319 1.5 43.9185 1.5 43.4985V13.4985C1.5 12.669 2.172 11.9985 3 11.9985V41.4705C3 41.952 3.4425 42.3105 3.912 42.2025C6.084 41.7015 11.6325 40.5 15 40.5C19.191 40.5 23.484 41.9085 23.526 41.9235L23.9985 42.081L24.4725 41.9235C24.516 41.9085 28.809 40.5 33 40.5C36.3675 40.5 41.916 41.7015 44.088 42.204C44.5575 42.312 45 41.9535 45 41.472V12C45.828 11.9985 46.5 12.6705 46.5 13.4985Z" fill="#F5CA52"/>
</svg>
