<svg width="48" height="48" viewBox="0 0 48 48" fill="none" xmlns="http://www.w3.org/2000/svg">
<path fill-rule="evenodd" clip-rule="evenodd" d="M44 24C44 35.0456 35.0456 44 24 44C12.9543 44 4 35.0456 4 24C4 12.9543 12.9543 4 24 4C35.0456 4 44 12.9543 44 24ZM24 15.5C22.7574 15.5 21.75 16.5074 21.75 17.75C21.75 18.5784 21.0784 19.25 20.25 19.25C19.4216 19.25 18.75 18.5784 18.75 17.75C18.75 14.8505 21.1006 12.5 24 12.5C26.8994 12.5 29.25 14.8505 29.25 17.75C29.25 19.1717 28.683 20.464 27.766 21.408C27.5814 21.5978 27.4054 21.7738 27.2374 21.9416C26.8058 22.3728 26.4276 22.7506 26.0958 23.177C25.6578 23.7398 25.5 24.1536 25.5 24.5V26C25.5 26.8284 24.8284 27.5 24 27.5C23.1716 27.5 22.5 26.8284 22.5 26V24.5C22.5 23.1896 23.11 22.1288 23.7284 21.3344C24.1858 20.7466 24.7608 20.1726 25.2276 19.7069C25.3684 19.5664 25.4992 19.4358 25.614 19.3175C26.0092 18.9109 26.25 18.3601 26.25 17.75C26.25 16.5074 25.2426 15.5 24 15.5ZM24 34C25.1046 34 26 33.1046 26 32C26 30.8954 25.1046 30 24 30C22.8954 30 22 30.8954 22 32C22 33.1046 22.8954 34 24 34Z" fill="#F5CA52"/>
</svg>
