<svg width="48" height="48" viewBox="0 0 48 48" fill="none" xmlns="http://www.w3.org/2000/svg">
<path d="M4.95238 24C4.4264 24 4 23.5736 4 23.0476C4 14.1565 10.0919 6.68816 18.3294 4.5889C18.0251 4.97414 17.7427 5.38056 17.4813 5.7991C16.0096 8.1552 14.9867 11.2106 14.2684 14.1431C13.5446 17.098 13.1044 20.0382 12.8449 22.2298C12.7664 22.8928 12.7042 23.4896 12.6556 24H4.95238Z" fill="#F58424"/>
<path d="M44 23.0476C44 23.5736 43.5736 24 43.0476 24H35.3444C35.2958 23.4896 35.2336 22.8928 35.155 22.2298C34.8956 20.0382 34.4554 17.098 33.7316 14.1431C33.0132 11.2106 31.9904 8.1552 30.5186 5.7991C30.2572 5.38056 29.975 4.97412 29.6706 4.5889C37.9082 6.68816 44 14.1565 44 23.0476Z" fill="#F58424"/>
<path d="M22.5 40V24H15.6697C15.7117 23.5772 15.7627 23.1012 15.8241 22.5826C16.0752 20.4618 16.4976 17.652 17.1823 14.8569C17.8724 12.0394 18.8037 9.3448 20.0258 7.3884C21.2584 5.4148 22.5774 4.5 24 4.5C25.4226 4.5 26.7416 5.4148 27.9742 7.3884C29.1962 9.3448 30.1276 12.0394 30.8178 14.8569C31.5024 17.652 31.9248 20.4618 32.1758 22.5826C32.2372 23.1012 32.2882 23.5772 32.3302 24H25.5V40C25.5 43.0376 23.0376 45.5 20 45.5C16.9624 45.5 14.5 43.0376 14.5 40V38C14.5 37.1716 15.1716 36.5 16 36.5C16.8284 36.5 17.5 37.1716 17.5 38V40C17.5 41.3808 18.6193 42.5 20 42.5C21.3808 42.5 22.5 41.3808 22.5 40Z" fill="#F58424"/>
</svg>
